<svg id="visual" viewBox="0 0 900 600" width="900" height="600" xmlns="http://www.w3.org/2000/svg" xmlns:xlink="http://www.w3.org/1999/xlink" version="1.1"><path d="M0 31L82 25L164 49L245 37L327 31L409 43L491 19L573 25L655 25L736 37L818 25L900 37L900 0L818 0L736 0L655 0L573 0L491 0L409 0L327 0L245 0L164 0L82 0L0 0Z" fill="#f7caca"></path><path d="M0 85L82 79L164 85L245 61L327 97L409 109L491 67L573 49L655 67L736 73L818 49L900 97L900 35L818 23L736 35L655 23L573 23L491 17L409 41L327 29L245 35L164 47L82 23L0 29Z" fill="#edbfb4"></path><path d="M0 139L82 127L164 181L245 163L327 163L409 181L491 151L573 103L655 103L736 181L818 97L900 133L900 95L818 47L736 71L655 65L573 47L491 65L409 107L327 95L245 59L164 83L82 77L0 83Z" fill="#dfb69f"></path><path d="M0 205L82 307L164 295L245 319L327 229L409 265L491 319L573 193L655 229L736 325L818 223L900 301L900 131L818 95L736 179L655 101L573 101L491 149L409 179L327 161L245 161L164 179L82 125L0 137Z" fill="#cdae8c"></path><path d="M0 421L82 391L164 409L245 379L327 433L409 385L491 397L573 397L655 373L736 391L818 403L900 403L900 299L818 221L736 323L655 227L573 191L491 317L409 263L327 227L245 317L164 293L82 305L0 203Z" fill="#b8a77c"></path><path d="M0 457L82 439L164 445L245 415L327 457L409 433L491 439L573 439L655 427L736 445L818 427L900 445L900 401L818 401L736 389L655 371L573 395L491 395L409 383L327 431L245 377L164 407L82 389L0 419Z" fill="#9fa171"></path><path d="M0 493L82 457L164 493L245 457L327 481L409 463L491 469L573 451L655 463L736 463L818 463L900 487L900 443L818 425L736 443L655 425L573 437L491 437L409 431L327 455L245 413L164 443L82 437L0 455Z" fill="#849a6a"></path><path d="M0 523L82 523L164 541L245 487L327 505L409 523L491 517L573 487L655 481L736 523L818 499L900 523L900 485L818 461L736 461L655 461L573 449L491 467L409 461L327 479L245 455L164 491L82 455L0 491Z" fill="#669369"></path><path d="M0 559L82 571L164 589L245 571L327 577L409 565L491 559L573 565L655 559L736 577L818 583L900 589L900 521L818 497L736 521L655 479L573 485L491 515L409 521L327 503L245 485L164 539L82 521L0 521Z" fill="#438c6c"></path><path d="M0 601L82 601L164 601L245 601L327 601L409 601L491 601L573 601L655 601L736 601L818 601L900 601L900 587L818 581L736 575L655 557L573 563L491 557L409 563L327 575L245 569L164 587L82 569L0 557Z" fill="#038373"></path></svg>